<?xml version="1.0" encoding="UTF-8"?>
<svg width="1192px" height="375px" viewBox="0 0 1192 375" version="1.1" xmlns="http://www.w3.org/2000/svg" xmlns:xlink="http://www.w3.org/1999/xlink">
    <!-- Generator: Sketch 64 (93537) - https://sketch.com -->
    <title>Group 2</title>
    <desc>Created with Sketch.</desc>
    <g id="Page-1" stroke="none" stroke-width="1" fill="none" fill-rule="evenodd">
        <g id="Group-2" fill="#000000">
            <path d="M800.4,80 C819.2,80 827.2,88.4 827.2,107.2 L827.2,107.2 L827.2,232.4 C827.2,238 830.4,241.2 836,241.2 L836,241.2 L852,241.2 L852,284 L803.6,284 C784.8,284 776.8,276 776.8,256.8 L776.8,256.8 L776.8,132 C776.8,127.838372 775.26052,125.216224 772.448508,124.000082 L718,124 C712.477153,124 708,119.522847 708,114 L708,90 C708,84.4771525 712.477153,80 718,80 Z" id="Combined-Shape" fill-rule="nonzero"></path>
            <path d="M961.8,284 L961.8,241.2 L946.2,241.2 C940.6,241.2 937.4,238 937.4,232.4 L937.4,27.2 C937.4,8.4 929,0 910.2,0 L861.8,0 L861.8,43.2 L877.8,43.2 C883.4,43.2 886.6,46 886.6,52 L886.6,256.8 C886.6,276 894.6,284 913.8,284 L961.8,284 Z" id="Path" fill-rule="nonzero"></path>
            <path d="M1067.6,75.2 C1135.6,75.2 1155.6,110.8 1155.6,156.4 L1155.6,156.4 L1155.6,232.4 C1155.6,238 1158.8,241.2 1164.4,241.2 L1164.4,241.2 L1191.96484,241.2 L1172.55078,284 L1134.8,284 C1116,284 1108.8,273.6 1108.8,261.6 C1108.8,256.4 1109.2,252.8 1109.2,252.8 L1109.2,252.8 L1108.4,252.8 C1108.4,252.8 1092.8,288.8 1046.8,288.8 C1010.4,288.8 977.2,266 977.2,225.2 C977.2,161.2 1065.2,156 1098.4,156 L1098.4,156 L1104.8,156 L1104.8,154.4 C1104.8,125.2 1093.2,114.4 1067.2,114.4 C1058,114.4 1040,116.8 1040,128 L1040,128 L1040,138.8 L992.8,138.8 L992.8,117.2 C992.8,79.2 1046.4,75.2 1067.6,75.2 Z M1105.6,190.8 L1096.8,190.8 C1070.4,190.8 1028.4,194.4 1028.4,222.8 C1028.4,236.4 1038.4,249.2 1059.2,249.2 C1086.4,249.2 1105.6,220.4 1105.6,195.6 L1105.6,195.6 L1105.6,190.8 Z" id="Combined-Shape" fill-rule="nonzero"></path>
            <rect id="Rectangle" fill-rule="nonzero" x="777" y="0" width="47" height="46" rx="10"></rect>
            <rect id="Rectangle" fill-rule="nonzero" x="585" y="145" width="47" height="46" rx="10"></rect>
            <path d="M722.848,364.46 C726.574,364.46 729.518,363.724 730.76,363.126 L729.748,357.606 C728.322,358.204 726.022,358.618 723.86,358.618 C717.65,358.618 713.97,354.708 713.97,348.544 C713.97,341.644 718.294,338.286 723.814,338.286 C726.344,338.286 728.322,338.838 729.702,339.436 L731.174,333.87 C729.932,333.272 727.172,332.536 723.538,332.536 C714.154,332.536 706.61,338.378 706.61,348.912 C706.61,357.744 712.13,364.46 722.848,364.46 Z M745.298,364.506 C751.278,364.506 757.12,360.734 757.12,352.546 C757.12,345.738 752.52,341 745.666,341 C738.398,341 733.614,345.646 733.614,352.914 C733.614,360.182 738.674,364.506 745.252,364.506 L745.298,364.506 Z M745.436,359.492 L745.39,359.492 C742.446,359.492 740.836,356.594 740.836,352.776 C740.836,349.418 742.124,346.014 745.436,346.014 C748.61,346.014 749.898,349.418 749.898,352.73 C749.898,356.778 748.196,359.492 745.436,359.492 Z M767.84,364.506 C770.508,364.506 772.808,363.54 774.28,361.746 L774.418,361.746 L774.832,364 L781.134,364 C780.858,362.758 780.766,360.688 780.766,358.572 L780.766,350.706 C780.766,345.416 778.42,341 770.922,341 C766.828,341 763.746,342.15 762.182,343.024 L763.47,347.486 C764.942,346.612 767.38,345.83 769.68,345.83 C773.13,345.83 773.774,347.532 773.774,348.728 L773.774,349.004 C765.816,349.004 760.572,351.764 760.572,357.606 C760.572,361.194 763.286,364.506 767.84,364.506 Z M770.232,359.584 C768.668,359.584 767.472,358.71 767.472,356.916 C767.472,354.248 770.324,353.374 774.004,353.374 L774.004,355.812 C774.004,356.226 773.958,356.64 773.866,357.008 C773.406,358.434 771.934,359.584 770.232,359.584 Z M797.558,364.46 C800.226,364.46 802.572,364 803.814,363.402 L802.986,358.25 C801.928,358.71 800.64,358.986 798.984,358.986 C795.58,358.986 792.82,356.824 792.82,352.684 C792.774,349.05 795.166,346.428 798.846,346.428 C800.686,346.428 801.928,346.75 802.756,347.118 L803.86,341.92 C802.388,341.368 800.364,341.046 798.524,341.046 C790.152,341.046 785.644,346.428 785.644,352.96 C785.644,359.998 790.29,364.46 797.558,364.46 Z M815.27,364 L815.27,350.66 C815.27,350.154 815.316,349.556 815.5,349.142 C816.006,347.854 817.156,346.658 818.996,346.658 C821.618,346.658 822.63,348.682 822.63,351.626 L822.63,364 L829.622,364 L829.622,350.89 C829.622,344.082 826.218,341 821.756,341 C820.468,341 819.18,341.322 818.122,341.874 C817.018,342.426 816.098,343.208 815.362,344.22 L815.27,344.22 L815.27,331.294 L808.278,331.294 L808.278,364 L815.27,364 Z M839.33,338.746 C841.63,338.746 843.056,337.182 843.056,335.25 C843.01,333.272 841.63,331.754 839.376,331.754 C837.122,331.754 835.65,333.272 835.65,335.25 C835.65,337.182 837.076,338.746 839.284,338.746 L839.33,338.746 Z M842.826,364 L842.826,341.506 L835.834,341.506 L835.834,364 L842.826,364 Z M856.03,364 L856.03,351.028 C856.03,350.384 856.076,349.74 856.26,349.28 C856.766,347.992 857.916,346.658 859.848,346.658 C862.378,346.658 863.39,348.636 863.39,351.534 L863.39,364 L870.382,364 L870.382,350.706 C870.382,344.082 866.932,341 862.332,341 C858.56,341 856.306,343.162 855.386,344.634 L855.248,344.634 L854.926,341.506 L848.854,341.506 C848.946,343.53 849.038,345.876 849.038,348.682 L849.038,364 L856.03,364 Z M885.334,373.614 C888.646,373.614 892.004,372.97 894.442,370.854 C897.018,368.6 897.892,365.058 897.892,360.734 L897.892,348.222 C897.892,344.864 897.984,342.978 898.076,341.506 L892.004,341.506 L891.774,344.22 L891.682,344.22 C890.532,342.334 888.6,341 885.518,341 C879.952,341 875.306,345.6 875.306,352.868 C875.306,359.308 879.262,363.816 884.828,363.816 C887.404,363.816 889.566,362.758 890.9,360.918 L890.992,360.918 L890.992,362.344 C890.992,366.53 888.462,368.278 885.15,368.278 C882.482,368.278 880.044,367.404 878.618,366.576 L877.238,371.912 C879.262,373.016 882.344,373.614 885.334,373.614 Z M886.944,358.664 C884.046,358.664 882.39,356.042 882.39,352.684 C882.39,348.59 884.414,346.29 886.99,346.29 C888.922,346.29 890.256,347.532 890.762,349.372 C890.854,349.786 890.9,350.246 890.9,350.66 L890.9,353.972 C890.9,354.57 890.854,355.306 890.67,355.858 C890.21,357.468 888.784,358.664 886.944,358.664 Z M915.192,374.166 C916.986,373.982 919.562,373.2 921.954,371.084 C924.484,368.83 926.646,365.288 929.866,356.318 L935.11,341.506 L927.612,341.506 L924.852,352.546 C924.53,353.88 924.162,355.536 923.84,356.778 L923.702,356.778 C923.426,355.582 922.966,353.88 922.598,352.592 L919.24,341.506 L911.466,341.506 L919.746,362.114 C919.976,362.666 920.022,362.988 920.022,363.264 C920.022,363.54 919.884,363.908 919.654,364.276 C919.01,365.38 917.814,366.53 916.756,367.082 C915.698,367.68 914.594,368.094 913.72,368.278 L915.192,374.166 Z M963.588,364.46 C967.314,364.46 970.258,363.724 971.5,363.126 L970.488,357.606 C969.062,358.204 966.762,358.618 964.6,358.618 C958.39,358.618 954.71,354.708 954.71,348.544 C954.71,341.644 959.034,338.286 964.554,338.286 C967.084,338.286 969.062,338.838 970.442,339.436 L971.914,333.87 C970.672,333.272 967.912,332.536 964.278,332.536 C954.894,332.536 947.35,338.378 947.35,348.912 C947.35,357.744 952.87,364.46 963.588,364.46 Z M986.038,364.506 C992.018,364.506 997.86,360.734 997.86,352.546 C997.86,345.738 993.26,341 986.406,341 C979.138,341 974.354,345.646 974.354,352.914 C974.354,360.182 979.414,364.506 985.992,364.506 L986.038,364.506 Z M986.176,359.492 L986.13,359.492 C983.186,359.492 981.576,356.594 981.576,352.776 C981.576,349.418 982.864,346.014 986.176,346.014 C989.35,346.014 990.638,349.418 990.638,352.73 C990.638,356.778 988.936,359.492 986.176,359.492 Z M1009.776,364 L1009.776,351.028 C1009.776,350.384 1009.822,349.74 1010.006,349.28 C1010.512,347.992 1011.662,346.658 1013.594,346.658 C1016.124,346.658 1017.136,348.636 1017.136,351.534 L1017.136,364 L1024.128,364 L1024.128,350.706 C1024.128,344.082 1020.678,341 1016.078,341 C1012.306,341 1010.052,343.162 1009.132,344.634 L1008.994,344.634 L1008.672,341.506 L1002.6,341.506 C1002.692,343.53 1002.784,345.876 1002.784,348.682 L1002.784,364 L1009.776,364 Z M1036.32,364.46 C1042.76,364.46 1046.026,361.378 1046.026,357.146 C1045.98,353.88 1044.232,351.718 1039.954,350.246 C1037.194,349.326 1036.32,348.728 1036.32,347.67 C1036.32,346.566 1037.286,345.876 1038.988,345.876 C1040.874,345.876 1042.852,346.612 1043.864,347.118 L1045.06,342.334 C1043.68,341.644 1041.38,341 1038.758,341 C1033.192,341 1029.604,344.174 1029.604,348.406 C1029.558,351.028 1031.352,353.558 1036.044,355.122 C1038.62,355.95 1039.31,356.548 1039.31,357.698 C1039.31,358.848 1038.436,359.538 1036.32,359.538 C1034.25,359.538 1031.582,358.664 1030.294,357.882 L1029.052,362.85 C1030.754,363.77 1033.376,364.46 1036.32,364.46 Z M1058.724,364.506 C1062.772,364.506 1064.888,362.206 1065.762,360.826 L1065.9,360.826 L1066.222,364 L1072.294,364 C1072.202,362.114 1072.11,359.722 1072.11,356.778 L1072.11,341.506 L1065.118,341.506 L1065.118,354.892 C1065.118,355.49 1065.026,355.996 1064.842,356.41 C1064.428,357.514 1063.278,358.848 1061.346,358.848 C1058.862,358.848 1057.804,356.87 1057.804,353.604 L1057.804,341.506 L1050.812,341.506 L1050.812,354.708 C1050.812,361.654 1054.124,364.506 1058.724,364.506 Z M1085.314,364 L1085.314,331.294 L1078.322,331.294 L1078.322,364 L1085.314,364 Z M1099.76,364.46 C1101.692,364.46 1103.394,364.184 1104.268,363.862 L1104.222,358.572 C1103.578,358.71 1103.118,358.756 1102.152,358.756 C1100.082,358.756 1099.392,357.514 1099.392,354.8 L1099.392,346.658 L1104.406,346.658 L1104.406,341.506 L1099.392,341.506 L1099.392,335.388 L1092.538,337.274 L1092.538,341.506 L1089.548,341.506 L1089.548,346.658 L1092.538,346.658 L1092.538,355.858 C1092.538,359.032 1093.182,361.194 1094.47,362.528 C1095.62,363.678 1097.506,364.46 1099.76,364.46 Z M1119.22,364.506 C1125.2,364.506 1131.042,360.734 1131.042,352.546 C1131.042,345.738 1126.442,341 1119.588,341 C1112.32,341 1107.536,345.646 1107.536,352.914 C1107.536,360.182 1112.596,364.506 1119.174,364.506 L1119.22,364.506 Z M1119.358,359.492 L1119.312,359.492 C1116.368,359.492 1114.758,356.594 1114.758,352.776 C1114.758,349.418 1116.046,346.014 1119.358,346.014 C1122.532,346.014 1123.82,349.418 1123.82,352.73 C1123.82,356.778 1122.118,359.492 1119.358,359.492 Z M1142.958,364 L1142.958,352.638 C1142.958,352.04 1143.004,351.534 1143.096,351.074 C1143.556,348.866 1145.304,347.532 1147.88,347.532 C1148.662,347.532 1149.214,347.624 1149.766,347.716 L1149.766,341.138 C1149.26,341.046 1148.938,341 1148.294,341 C1146.086,341 1143.372,342.38 1142.222,345.692 L1142.038,345.692 L1141.762,341.506 L1135.782,341.506 C1135.92,343.438 1135.966,345.6 1135.966,348.912 L1135.966,364 L1142.958,364 Z M1157.542,338.746 C1159.842,338.746 1161.268,337.182 1161.268,335.25 C1161.222,333.272 1159.842,331.754 1157.588,331.754 C1155.334,331.754 1153.862,333.272 1153.862,335.25 C1153.862,337.182 1155.288,338.746 1157.496,338.746 L1157.542,338.746 Z M1161.038,364 L1161.038,341.506 L1154.046,341.506 L1154.046,364 L1161.038,364 Z M1173.046,364.506 C1175.714,364.506 1178.014,363.54 1179.486,361.746 L1179.624,361.746 L1180.038,364 L1186.34,364 C1186.064,362.758 1185.972,360.688 1185.972,358.572 L1185.972,350.706 C1185.972,345.416 1183.626,341 1176.128,341 C1172.034,341 1168.952,342.15 1167.388,343.024 L1168.676,347.486 C1170.148,346.612 1172.586,345.83 1174.886,345.83 C1178.336,345.83 1178.98,347.532 1178.98,348.728 L1178.98,349.004 C1171.022,349.004 1165.778,351.764 1165.778,357.606 C1165.778,361.194 1168.492,364.506 1173.046,364.506 Z M1175.438,359.584 C1173.874,359.584 1172.678,358.71 1172.678,356.916 C1172.678,354.248 1175.53,353.374 1179.21,353.374 L1179.21,355.812 C1179.21,356.226 1179.164,356.64 1179.072,357.008 C1178.612,358.434 1177.14,359.584 1175.438,359.584 Z" id="CoachingyConsultoria" fill-rule="nonzero"></path>
            <g id="Kol-Logo-white" fill-rule="nonzero">
                <polyline id="Fill-1" points="193 282 139.435581 282 139.435581 216.38819 116.859214 192.92496 66.3464874 282 0 282 77.6299358 152.133034 2.89780547 74.4486704 70.6789907 74.4486704 139.435581 153.106131 139.435581 1 193 1 193 282"></polyline>
                <path d="M342.025544,226.356845 C350.562016,215.044141 354.829069,198.959481 354.829069,178.1005 C354.829069,157.243883 350.562016,141.180505 342.025544,129.931648 C333.477239,118.675696 321.236975,113.04772 305.307119,113.04772 C289.377262,113.04772 277.099132,118.675696 268.498761,129.931648 C259.888923,141.180505 255.593471,157.243883 255.593471,178.1005 C255.593471,198.959481 259.888923,215.044141 268.498761,226.356845 C277.099132,237.683738 289.377262,243.34482 305.307119,243.34482 C321.236975,243.34482 333.477239,237.683738 342.025544,226.356845 Z M385.623793,256.461787 C368.030189,278.155505 341.320285,289 305.501183,289 C269.679715,289 242.969811,278.155505 225.385673,256.461787 C207.792069,234.765703 199,208.640545 199,178.1005 C199,148.075958 207.792069,122.038293 225.385673,100.025341 C242.969811,78.012388 269.679715,67 305.501183,67 C341.320285,67 368.030189,78.012388 385.623793,100.025341 C403.207931,122.038293 412,148.075958 412,178.1005 C412,208.640545 403.207931,234.765703 385.623793,256.461787 L385.623793,256.461787 Z" id="Fill-2"></path>
                <polygon id="Fill-3" points="421 282 476 282 476 0 421 0"></polygon>
                <path d="M499.189295,267.60899 C499.709545,267.60899 500.27074,267.60899 500.896967,267.60899 C501.511151,267.60899 502.084389,267.539154 502.61909,267.401891 C503.151383,267.252587 503.596967,266.9901 503.936574,266.619247 C504.273773,266.233946 504.456824,265.66081 504.456824,264.904656 C504.456824,264.309847 504.341213,263.842669 504.119625,263.495897 C503.883586,263.158758 503.596967,262.896272 503.242908,262.713254 C502.891258,262.53746 502.474576,262.414645 502.031401,262.35685 C501.573773,262.296646 501.133006,262.270157 500.675379,262.270157 L496.371276,262.270157 L496.371276,267.60899 L499.189295,267.60899 Z M506.270473,276.015787 L504.066637,276.015787 L499.748082,269.070728 L496.371276,269.070728 L496.371276,276.015787 L494.516682,276.015787 L494.516682,260.948091 L501.106512,260.948091 C503.100803,260.948091 504.483318,261.304495 505.266102,262.014895 C506.048885,262.727702 506.441481,263.702997 506.441481,264.935961 C506.441481,265.682483 506.335504,266.30619 506.087422,266.828755 C505.851383,267.348912 505.528635,267.775152 505.097502,268.093025 C504.666369,268.406083 504.155754,268.654121 503.582516,268.808241 C502.997235,268.952729 502.371008,269.051463 501.706244,269.070728 L506.270473,276.015787 Z M499.538537,280.215573 C501.169135,280.215573 502.684121,279.914556 504.07868,279.31493 C505.473238,278.703264 506.66066,277.879682 507.665031,276.817695 C508.65736,275.767749 509.440143,274.520335 510.013381,273.09472 C510.574576,271.666696 510.863604,270.127899 510.863604,268.471102 C510.863604,266.828755 510.574576,265.294773 510.013381,263.869158 C509.440143,262.441134 508.65736,261.20817 507.665031,260.165448 C506.66066,259.120318 505.473238,258.291919 504.07868,257.692294 C502.684121,257.085444 501.169135,256.779611 499.538537,256.779611 C497.898305,256.779611 496.383318,257.085444 494.976717,257.692294 C493.57975,258.291919 492.365834,259.120318 491.361463,260.165448 C490.345049,261.20817 489.562266,262.441134 488.989028,263.869158 C488.427832,265.294773 488.141213,266.828755 488.141213,268.471102 C488.141213,270.127899 488.427832,271.666696 488.989028,273.09472 C489.562266,274.520335 490.345049,275.767749 491.361463,276.817695 C492.365834,277.879682 493.57975,278.703264 494.976717,279.31493 C496.383318,279.914556 497.898305,280.215573 499.538537,280.215573 Z M499.538537,282 C497.662266,282 495.901606,281.641188 494.271008,280.933197 C492.625959,280.215573 491.192864,279.247503 489.966905,278.024171 C488.740946,276.810471 487.77752,275.377631 487.071811,273.7401 C486.354059,272.097752 486,270.334998 486,268.471102 C486,266.619247 486.354059,264.866126 487.071811,263.22137 C487.77752,261.591063 488.740946,260.165448 489.966905,258.958973 C491.192864,257.745273 492.625959,256.779611 494.271008,256.069212 C495.901606,255.358812 497.662266,255 499.538537,255 C501.393131,255 503.13934,255.358812 504.769938,256.069212 C506.414987,256.779611 507.850491,257.745273 509.061998,258.958973 C510.287957,260.165448 511.253791,261.591063 511.945049,263.22137 C512.662801,264.866126 513,266.619247 513,268.471102 C513,270.334998 512.662801,272.097752 511.945049,273.7401 C511.253791,275.377631 510.287957,276.810471 509.061998,278.024171 C507.850491,279.247503 506.414987,280.215573 504.769938,280.933197 C503.13934,281.641188 501.393131,282 499.538537,282 L499.538537,282 Z" id="Fill-4" fill-opacity="0.238636364"></path>
            </g>
            <rect id="Rectangle" x="574" y="145" width="45" height="46"></rect>
        </g>
    </g>
</svg>